<?xml version="1.0" encoding="UTF-8" standalone="no"?>
<!-- Generator: Adobe Illustrator 17.1.0, SVG Export Plug-In . SVG Version: 6.00 Build 0)  -->

<svg
   xmlns:dc="http://purl.org/dc/elements/1.1/"
   xmlns:cc="http://creativecommons.org/ns#"
   xmlns:rdf="http://www.w3.org/1999/02/22-rdf-syntax-ns#"
   xmlns:svg="http://www.w3.org/2000/svg"
   xmlns="http://www.w3.org/2000/svg"
   xmlns:sodipodi="http://sodipodi.sourceforge.net/DTD/sodipodi-0.dtd"
   xmlns:inkscape="http://www.inkscape.org/namespaces/inkscape"
   version="1.1"
   id="Capa_1"
   x="0px"
   y="0px"
   viewBox="0 0 210.00001 210.00001"
   xml:space="preserve"
   inkscape:version="0.91 r13725"
   sodipodi:docname="industry5.svg"
   width="210"
   height="210"><metadata
     id="metadata3373"><rdf:RDF><cc:Work
         rdf:about=""><dc:format>image/svg+xml</dc:format><dc:type
           rdf:resource="http://purl.org/dc/dcmitype/StillImage" /><dc:title></dc:title></cc:Work></rdf:RDF></metadata><defs
     id="defs3371" /><sodipodi:namedview
     pagecolor="#ffffff"
     bordercolor="#666666"
     borderopacity="1"
     objecttolerance="10"
     gridtolerance="10"
     guidetolerance="10"
     inkscape:pageopacity="0"
     inkscape:pageshadow="2"
     inkscape:window-width="1920"
     inkscape:window-height="1017"
     id="namedview3369"
     showgrid="false"
     fit-margin-top="4"
     fit-margin-bottom="4"
     fit-margin-left="4"
     fit-margin-right="4"
     inkscape:zoom="4.1704988"
     inkscape:cx="105.6665"
     inkscape:cy="105.51446"
     inkscape:window-x="-8"
     inkscape:window-y="-8"
     inkscape:window-maximized="1"
     inkscape:current-layer="Capa_1" /><path
     d="m 207.333,118.549 0,82.451 c 0,2.761 -2.239,5 -5,5 L 9,206 c -2.761,0 -5,-2.239 -5,-5 l 0,-58.34 c 0,-1.896 1.072,-3.628 2.768,-4.474 l 48.333,-24.111 c 1.55,-0.773 3.39,-0.689 4.862,0.222 1.473,0.911 2.37,2.52 2.37,4.252 l 0,16.029 29.597,-14.764 0,-48.831995 c 0,-2.761 2.239,-5 5,-5 l 9.074,0 c 2.761,0 5,2.239 5,5 l 0,63.427995 33.021,-16.472 2.044,-88.588995 c 0.063,-2.716 2.282,-4.885 4.999,-4.885 l 21.797,0 c 2.716,0 4.936,2.169 4.999,4.885 l 2.186,94.728995 20.051,-10.002 c 1.55,-0.773 3.389,-0.689 4.862,0.222 1.473,0.911 2.37,2.519 2.37,4.251 z m -168.255,46.986 -13.525,0 0,19.006 13.525,0 0,-19.006 z m 36.625,0 -13.525,0 0,19.006 13.525,0 0,-19.006 z m 36.626,0 -13.525,0 0,19.006 13.525,0 0,-19.006 z m 36.626,0 -13.525,0 0,19.006 13.525,0 0,-19.006 z"
     id="path3337"
     inkscape:connector-curvature="0" /><g
     id="g3339"
     transform="translate(4,13.566005)" /><g
     id="g3341"
     transform="translate(4,13.566005)" /><g
     id="g3343"
     transform="translate(4,13.566005)" /><g
     id="g3345"
     transform="translate(4,13.566005)" /><g
     id="g3347"
     transform="translate(4,13.566005)" /><g
     id="g3349"
     transform="translate(4,13.566005)" /><g
     id="g3351"
     transform="translate(4,13.566005)" /><g
     id="g3353"
     transform="translate(4,13.566005)" /><g
     id="g3355"
     transform="translate(4,13.566005)" /><g
     id="g3357"
     transform="translate(4,13.566005)" /><g
     id="g3359"
     transform="translate(4,13.566005)" /><g
     id="g3361"
     transform="translate(4,13.566005)" /><g
     id="g3363"
     transform="translate(4,13.566005)" /><g
     id="g3365"
     transform="translate(4,13.566005)" /><g
     id="g3367"
     transform="translate(4,13.566005)" /></svg>